<?xml version="1.0" encoding="utf-8"?>
<!-- Generator: Adobe Illustrator 16.0.0, SVG Export Plug-In . SVG Version: 6.00 Build 0)  -->
<!DOCTYPE svg PUBLIC "-//W3C//DTD SVG 1.1//EN" "http://www.w3.org/Graphics/SVG/1.1/DTD/svg11.dtd">
<svg version="1.1" id="레이어_1" xmlns="http://www.w3.org/2000/svg" xmlns:xlink="http://www.w3.org/1999/xlink" x="0px"
	 y="0px" width="200px" height="174.199px" viewBox="0 0 200 174.199" enable-background="new 0 0 200 174.199"
	 xml:space="preserve">
<path fill="#0B2F77" d="M196.508,85.111l-25.46-21.58V30.366h-5v28.928L100,3.313L3.493,85.111l3.232,3.814l22.593-19.15v100.533
	h141.729V70.086l22.229,18.839L196.508,85.111z M166.048,165.309H34.318V65.538L100,9.867l66.048,55.981V165.309z"/>
<g>
	<path fill="#0B2F77" d="M43.51,118.552h6.439v13.857h10.996v-13.857h6.439v35.623h-6.439v-16.041H49.95v16.041h-6.44V118.552z"/>
	<path fill="#0B2F77" d="M84.142,118.175c2.209,0,4.067,0.289,5.573,0.867c1.507,0.576,2.718,1.567,3.635,2.975
		c0.916,1.406,1.568,3.281,1.958,5.629c0.389,2.348,0.583,5.291,0.583,8.832c0,3.564-0.194,6.527-0.583,8.887
		c-0.39,2.359-1.042,4.242-1.958,5.648c-0.917,1.404-2.128,2.396-3.635,2.975c-1.506,0.576-3.364,0.865-5.573,0.865
		c-2.234,0-4.098-0.295-5.592-0.885c-1.494-0.59-2.705-1.594-3.634-3.012s-1.588-3.31-1.977-5.668
		c-0.39-2.359-0.583-5.31-0.583-8.851c0-3.539,0.201-6.481,0.603-8.83c0.401-2.349,1.06-4.218,1.977-5.61
		c0.916-1.394,2.127-2.379,3.634-2.955C80.075,118.464,81.933,118.175,84.142,118.175z M84.104,149.317
		c0.929,0,1.726-0.164,2.392-0.489c0.664-0.326,1.217-0.953,1.656-1.884c0.439-0.928,0.766-2.231,0.979-3.916
		c0.213-1.682,0.32-3.864,0.32-6.551c0-2.662-0.095-4.827-0.283-6.496c-0.188-1.67-0.489-2.969-0.903-3.897
		c-0.414-0.928-0.96-1.558-1.639-1.883c-0.678-0.326-1.506-0.49-2.485-0.49s-1.807,0.164-2.485,0.49
		c-0.678,0.325-1.237,0.955-1.676,1.883c-0.439,0.93-0.76,2.223-0.96,3.879c-0.201,1.656-0.301,3.815-0.301,6.477
		c0,2.688,0.113,4.871,0.339,6.553s0.565,2.994,1.017,3.936c0.452,0.941,1.01,1.574,1.676,1.9
		C82.416,149.153,83.2,149.317,84.104,149.317z"/>
	<path fill="#0B2F77" d="M132.343,118.552v35.623h-6.138v-22.143l-6.139,22.143h-6.703l-6.139-22.293v22.293h-6.138v-35.623h8.812
		l6.854,25.871l6.703-25.871H132.343z"/>
	<path fill="#0B2F77" d="M158.628,118.552v5.498H144.13v9.564h13.67v5.534h-13.67v9.565h14.912v5.498h-21.237V118.55h20.823V118.552
		z"/>
</g>
</svg>
